<svg id="visual" viewBox="0 0 900 675" width="900" height="675" xmlns="http://www.w3.org/2000/svg" xmlns:xlink="http://www.w3.org/1999/xlink" version="1.1"><rect x="0" y="0" width="900" height="675" fill="#086375"></rect><path d="M0 401L25 427.8C50 454.7 100 508.3 150 531.8C200 555.3 250 548.7 300 530.7C350 512.7 400 483.3 450 464.5C500 445.7 550 437.3 600 438.3C650 439.3 700 449.7 750 463.2C800 476.7 850 493.3 875 501.7L900 510L900 676L875 676C850 676 800 676 750 676C700 676 650 676 600 676C550 676 500 676 450 676C400 676 350 676 300 676C250 676 200 676 150 676C100 676 50 676 25 676L0 676Z" fill="#1dd3b0" stroke-linecap="round" stroke-linejoin="miter"></path></svg>